<?xml version="1.0" encoding="UTF-8" standalone="no"?>
<!-- Created with Inkscape (http://www.inkscape.org/) -->

<svg
   width="87.835869mm"
   height="51.351631mm"
   viewBox="10 0 95.836 56.028761"
   version="1.1"
   id="svg1"
   inkscape:version="1.4 (e7c3feb1, 2024-10-09)"
   sodipodi:docname="tools.svg"
   xmlns:inkscape="http://www.inkscape.org/namespaces/inkscape"
   xmlns:sodipodi="http://sodipodi.sourceforge.net/DTD/sodipodi-0.dtd"
   xmlns="http://www.w3.org/2000/svg"
   xmlns:svg="http://www.w3.org/2000/svg">
  <sodipodi:namedview
     id="namedview1"
     pagecolor="#000000"
     bordercolor="#000000"
     borderopacity="0.25"
     inkscape:showpageshadow="2"
     inkscape:pageopacity="0.0"
     inkscape:pagecheckerboard="0"
     inkscape:deskcolor="#d1d1d1"
     inkscape:document-units="mm"
     inkscape:zoom="0.52410024"
     inkscape:cx="71.551197"
     inkscape:cy="103.98774"
     inkscape:window-width="1800"
     inkscape:window-height="1022"
     inkscape:window-x="926"
     inkscape:window-y="1484"
     inkscape:window-maximized="1"
     inkscape:current-layer="layer1" />
  <defs
     id="defs1" />
  <g
     inkscape:label="Layer 1"
     inkscape:groupmode="layer"
     id="layer1"
     transform="translate(-51.082063,-122.82418)">
    <g
       id="g9"
       transform="translate(26.699285,77.694912)"
       style="fill:#ffffff">
      <g
         id="g10"
         transform="translate(4.0000626,2.3385603)"
         style="fill:#ffffff">
        <path
           d="m 34.382778,64.055248 8.756055,-8.756055 -8.73125,-8.73125 1.438672,-1.438672 8.73125,8.73125 8.731249,-8.73125 1.389063,1.413868 -8.73125,8.731249 8.780859,8.78086 -1.413867,1.438671 -8.780859,-8.780859 -8.756055,8.756055 z"
           id="text1"
           style="font-size:50.8px;font-family:Serif;-inkscape-font-specification:Serif;fill:#ffffff;stroke-width:1.2;stroke-linecap:round"
           aria-label="ร" />
        <path
           d="m 108.84893,45.439331 q 0.89296,0 1.51308,0.644922 0.64492,0.620117 0.64492,1.513086 0,0.892969 -0.64492,1.537891 -0.62012,0.620117 -1.53789,0.620117 -0.89297,0 -1.53789,-0.620117 -0.62012,-0.644922 -0.62012,-1.537891 0,-0.892969 0.62012,-1.513086 0.64492,-0.644922 1.5627,-0.644922 z M 122.21865,56.22937 H 95.479199 v -2.033984 h 26.739451 z m -13.36972,4.588867 q 0.91777,0 1.53789,0.644922 0.64492,0.644922 0.64492,1.537891 0,0.892969 -0.64492,1.537891 -0.64493,0.644921 -1.53789,0.644921 -0.89297,0 -1.5379,-0.644921 -0.64492,-0.644922 -0.64492,-1.537891 0,-0.892969 0.62012,-1.537891 0.64492,-0.644922 1.5627,-0.644922 z"
           id="text2"
           style="font-size:50.8px;font-family:Serif;-inkscape-font-specification:Serif;fill:#ffffff;stroke-width:1.2;stroke-linecap:round"
           aria-label="รท" />
        <path
           d="m 69.878106,96.245886 v 0.235018 q -0.959131,-0.482741 -1.600668,-1.13063 -0.914667,-0.921019 -1.410112,-2.172335 -0.495445,-1.251315 -0.495445,-2.597909 0,-1.969075 0.971834,-3.588798 0.971834,-1.626075 2.534391,-2.324779 v 0.266778 q -0.781279,0.431926 -1.283075,1.181445 -0.501797,0.749519 -0.749519,1.899205 -0.247723,1.149686 -0.247723,2.401001 0,1.359297 0.209612,2.470872 0.165148,0.876556 0.400167,1.40376 0.235018,0.533556 0.628833,1.022649 0.400167,0.489093 1.041705,0.933723 z m 7.495189,-0.381112 v -0.279481 q 0.654241,-0.215963 1.009945,-0.673297 0.362056,-0.450982 0.362056,-0.95913 0,-0.120686 -0.05717,-0.20326 -0.04446,-0.05717 -0.08893,-0.05717 -0.06987,0 -0.304889,0.127037 -0.114333,0.05717 -0.24137,0.05717 -0.311241,0 -0.495445,-0.184203 -0.184204,-0.184204 -0.184204,-0.508149 0,-0.311241 0.235019,-0.533556 0.24137,-0.222315 0.584371,-0.222315 0.419222,0 0.743167,0.368408 0.330296,0.362056 0.330296,0.965482 0,0.654241 -0.457333,1.213204 -0.450982,0.565316 -1.43552,0.88926 z m 9.349932,-10.931543 v -0.266778 q 0.965482,0.476389 1.60702,1.124278 0.908315,0.927371 1.40376,2.178687 0.495444,1.244963 0.495444,2.597909 0,1.969075 -0.971834,3.588798 -0.965482,1.626075 -2.53439,2.324779 v -0.235018 q 0.781278,-0.438278 1.283075,-1.187797 0.508148,-0.743168 0.749519,-1.892853 0.247722,-1.156038 0.247722,-2.407354 0,-1.352945 -0.209611,-2.470871 -0.158796,-0.876557 -0.400167,-1.403761 -0.235019,-0.527204 -0.628834,-1.016296 -0.393815,-0.489093 -1.041704,-0.933723 z"
           id="text3"
           style="font-size:13.0086px;font-family:Serif;-inkscape-font-specification:Serif;fill:#ffffff;stroke-width:0.307291;stroke-linecap:round"
           aria-label="(  ,  )" />
        <path
           style="font-size:13.0086px;font-family:'Courier New';-inkscape-font-specification:'Courier New';fill:#ffffff;stroke-width:0.307291;stroke-linecap:round"
           d="m 73.0659,90.421246 v -1.822982 q 0,-0.196908 0.07622,-0.279482 0.07622,-0.08257 0.196908,-0.08257 0.114333,0 0.190555,0.08257 0.07622,0.08257 0.07622,0.279482 v 1.822982 l 1.734056,-0.565315 q 0.120685,-0.03811 0.184204,-0.03811 0.10163,0 0.177852,0.08257 0.07622,0.07622 0.07622,0.184204 0,0.09528 -0.05717,0.165148 -0.05082,0.06987 -0.215964,0.120685 l -1.734056,0.565315 1.073463,1.473631 q 0.10163,0.146093 0.10163,0.228667 0,0.114333 -0.08257,0.196907 -0.07622,0.07622 -0.184204,0.07622 -0.139741,0 -0.27313,-0.184204 l -1.073463,-1.479983 -1.073464,1.479983 q -0.133389,0.184204 -0.266778,0.184204 -0.114333,0 -0.196907,-0.07622 -0.07622,-0.08257 -0.07622,-0.196907 0,-0.08257 0.107981,-0.228667 l 1.073464,-1.473631 -1.740409,-0.571667 q -0.158796,-0.05081 -0.215963,-0.114333 -0.05082,-0.06987 -0.05082,-0.165148 0,-0.107982 0.07622,-0.184204 0.07622,-0.08257 0.1715,-0.08257 0.06987,0 0.190555,0.03811 z"
           id="text7"
           aria-label="*" />
        <path
           style="font-size:13.0086px;font-family:'Courier New';-inkscape-font-specification:'Courier New';fill:#ffffff;stroke-width:0.307291;stroke-linecap:round"
           d="m 86.01548,86.089269 -4.293854,9.197487 q -0.107982,0.235018 -0.279482,0.235018 -0.107981,0 -0.190556,-0.08257 -0.07622,-0.07622 -0.07622,-0.1715 0,-0.07622 0.06352,-0.209611 l 4.287502,-9.197487 q 0.06987,-0.146093 0.133389,-0.190556 0.06352,-0.04446 0.152445,-0.04446 0.107981,0 0.184204,0.08257 0.08257,0.07622 0.08257,0.1715 0,0.06987 -0.06352,0.209611 z"
           id="text8"
           aria-label="/" />
      </g>
    </g>
    <g
       inkscape:groupmode="layer"
       id="layer2"
       inkscape:label="Layer 2" />
  </g>
</svg>
